<svg xmlns="http://www.w3.org/2000/svg" version="1.1" xmlns:xlink="http://www.w3.org/1999/xlink" xmlns:svgjs="http://svgjs.dev/svgjs" width="1000" height="1000" viewBox="0 0 1000 1000"><rect width="1000" height="1000" fill="#000000"></rect><g transform="matrix(0.7,0,0,0.7,150,281.25)"><svg viewBox="0 0 512 320" data-background-color="#0c0b0b" preserveAspectRatio="xMidYMid meet" height="625" width="1000" xmlns="http://www.w3.org/2000/svg" xmlns:xlink="http://www.w3.org/1999/xlink"><g id="tight-bounds" transform="matrix(1,0,0,1,0,0)"><svg viewBox="0 0 512 320" height="320" width="512"><g><svg></svg></g><g><svg viewBox="0 0 512 320" height="320" width="512"><g><path d="M96 160c0-88.366 71.634-160 160-160 88.366 0 160 71.634 160 160 0 88.366-71.634 160-160 160-88.366 0-160-71.634-160-160z" fill="#ffffff" fill-rule="nonzero" stroke="none" stroke-width="1" stroke-linecap="butt" stroke-linejoin="miter" stroke-miterlimit="10" stroke-dasharray="" stroke-dashoffset="0" font-family="none" font-weight="none" font-size="none" text-anchor="none" style="mix-blend-mode: normal" data-fill-palette-color="tertiary"></path></g><g transform="matrix(1,0,0,1,204.06687589158346,80)"><svg viewBox="0 0 103.86624821683309 160" height="160" width="103.86624821683309"><g><svg viewBox="0 0 103.86624821683309 160" height="160" width="103.86624821683309"><g><svg viewBox="0 0 103.86624821683309 160" height="160" width="103.86624821683309"><g id="textblocktransform"><svg viewBox="0 0 103.86624821683309 160" height="160" width="103.86624821683309" id="textblock"><g><svg viewBox="0 0 103.86624821683309 160" height="160" width="103.86624821683309"><rect width="103.86624821683309" height="160" x="0" y="0" opacity="1" fill="#ffffff" data-fill-palette-color="tertiary"></rect><g transform="matrix(1,0,0,1,15.280000000000001,15.280000000000001)"><svg width="73.30624821683308" viewBox="3.95 -35.05 19.85 35.05" height="129.44" data-palette-color="#0c0c0c"><path d="M20.45 0L9.15-17.25 6.75-13.45 6.75 0 3.95 0 3.95-35.05 6.75-35.05 6.75-18.35 17.95-35.05 21.2-35.05 10.95-19.9 23.8 0 20.45 0Z" opacity="1" transform="matrix(1,0,0,1,0,0)" fill="#000000" class="wordmark-text-0" data-fill-palette-color="quaternary" id="text-0"></path></svg></g></svg></g></svg></g></svg></g><g></g></svg></g></svg></g></svg></g><defs></defs></svg><rect width="512" height="320" fill="none" stroke="none" visibility="hidden"></rect></g></svg></g></svg>