<svg xmlns="http://www.w3.org/2000/svg" version="1.1" xmlns:xlink="http://www.w3.org/1999/xlink" xmlns:svgjs="http://svgjs.dev/svgjs" width="1000" height="1000" viewBox="0 0 1000 1000"><rect width="1000" height="1000" fill="#000000"></rect><g transform="matrix(0.7,0,0,0.7,150.44956657179546,270.585910931174)"><svg viewBox="0 0 376 247" data-background-color="#ffffff" preserveAspectRatio="xMidYMid meet" height="656" width="1000" xmlns="http://www.w3.org/2000/svg" xmlns:xlink="http://www.w3.org/1999/xlink"><g id="tight-bounds" transform="matrix(1,0,0,1,-0.24148147285015398,-0.09999999999999432)"><svg viewBox="0 0 376.4829629457003 247.2" height="247.2" width="376.4829629457003"><g><svg viewBox="0 0 395.52 259.69978358383673" height="247.2" width="376.4829629457003"><g><svg viewBox="0 0 395.52 259.69978358383673" height="259.69978358383673" width="395.52"><g id="textblocktransform"><svg viewBox="0 0 395.52 259.69978358383673" height="259.69978358383673" width="395.52" id="textblock"><g><svg viewBox="0 0 395.52 196.41490150179" height="196.41490150179" width="395.52"><rect width="395.52" height="196.41490150179" x="0" y="0" opacity="1" fill="#ffffff" data-fill-palette-color="tertiary"></rect><g transform="matrix(1,0,0,1,23.461705032,23.461705032)"><svg width="348.596589936" viewBox="3.95 -35.5 107.14 45.95" height="149.49149143779002" data-palette-color="#ffffff"><path d="M20.45 0L9.15-17.25 6.75-13.45 6.75 0 3.95 0 3.95-35.05 6.75-35.05 6.75-18.35 17.95-35.05 21.2-35.05 10.95-19.9 23.8 0 20.45 0ZM28.2-6.35Q28.5-4.1 30.45-2.98 32.4-1.85 34.8-1.85L34.8-1.85Q37.05-1.85 38.9-2.88 40.75-3.9 40.75-6.2L40.75-6.2Q40.75-7.7 39.87-8.68 39-9.65 37.7-10.25 36.4-10.85 34.2-11.55L34.2-11.55Q31.75-12.35 30.2-13.05 28.65-13.75 27.5-15.03 26.35-16.3 26.15-18.25L26.15-18.25 26.1-18.85Q26.1-20.5 27.02-22.08 27.95-23.65 29.87-24.65 31.8-25.65 34.7-25.65L34.7-25.65Q36.3-25.65 37.52-25.33 38.75-25 39.45-24.65 40.15-24.3 40.3-24.2L40.3-24.2 39.35-21.9Q39.2-22 38.62-22.3 38.05-22.6 37-22.9 35.95-23.2 34.7-23.2L34.7-23.2Q32.3-23.2 30.6-22.08 28.9-20.95 28.9-18.95L28.9-18.95Q28.9-17.05 30.45-16.05 32-15.05 35.2-14.05L35.2-14.05Q37.9-13.15 39.55-12.35 41.2-11.55 42.37-10.08 43.55-8.6 43.55-6.25L43.55-6.25Q43.55-3.25 41.32-1.25 39.1 0.75 34.8 0.75L34.8 0.75Q31.95 0.75 29.87-0.23 27.8-1.2 26.72-2.8 25.65-4.4 25.55-6.35L25.55-6.35 28.2-6.35ZM64.2 0L64.2-17.15Q64.2-20.2 62.42-21.58 60.65-22.95 57.84-22.95L57.84-22.95Q56.15-22.95 54.4-22.48 52.65-22 51.3-21.25L51.3-21.25 51.3 0 48.5 0 48.5-35 51.3-35 51.3-23.7Q52.55-24.55 54.3-25.03 56.05-25.5 57.95-25.5L57.95-25.5Q60.55-25.5 62.7-24.55L62.7-24.55Q64.7-23.65 65.82-21.85 66.95-20.05 66.95-17.3L66.95-17.3 66.95 0 64.2 0ZM75.54-32.15Q74.89-32.15 74.37-32.68 73.84-33.2 73.84-33.85L73.84-33.85Q73.84-34.5 74.34-35 74.84-35.5 75.54-35.5L75.54-35.5Q76.24-35.5 76.72-35.02 77.19-34.55 77.19-33.85L77.19-33.85Q77.19-33.15 76.69-32.65 76.19-32.15 75.54-32.15L75.54-32.15ZM74.09 0L74.09-25.05 76.89-25.05 76.89 0 74.09 0ZM88.69 0.65Q85.89-0.15 84.64-1.9 83.39-3.65 83.39-6.6L83.39-6.6 83.39-35 86.19-35 86.19-25.05 92.19-25.05 90.99-22.4 86.19-22.4 86.19-6.6Q86.19-2.6 89.49-1.5L89.49-1.5 88.69 0.65ZM98.94-32.15Q98.29-32.15 97.76-32.68 97.24-33.2 97.24-33.85L97.24-33.85Q97.24-34.5 97.74-35 98.24-35.5 98.94-35.5L98.94-35.5Q99.64-35.5 100.11-35.02 100.59-34.55 100.59-33.85L100.59-33.85Q100.59-33.15 100.09-32.65 99.59-32.15 98.94-32.15L98.94-32.15ZM97.49 0L97.49-25.05 100.29-25.05 100.29 0 97.49 0ZM109.44-32.15Q108.79-32.15 108.26-32.68 107.74-33.2 107.74-33.85L107.74-33.85Q107.74-34.5 108.24-35 108.74-35.5 109.44-35.5L109.44-35.5Q110.14-35.5 110.61-35.02 111.09-34.55 111.09-33.85L111.09-33.85Q111.09-33.15 110.59-32.65 110.09-32.15 109.44-32.15L109.44-32.15ZM107.99-22.3L105.74-22.45 104.59-25.05 110.79-25.05 110.79 3.75Q110.69 6.65 108.99 8.55 107.29 10.45 104.59 10.45L104.59 10.45 104.24 8.3Q104.24 8.45 105.29 7.98 106.34 7.5 107.16 6.28 107.99 5.05 107.99 2.8L107.99 2.8 107.99-22.3Z" opacity="1" transform="matrix(1,0,0,1,0,0)" fill="#000000" class="wordmark-text-0" data-fill-palette-color="quaternary" id="text-0"></path></svg></g></svg></g><g transform="matrix(1,0,0,1,0,208.14575401779)"><svg viewBox="0 0 395.52 51.55402956604673" height="51.55402956604673" width="395.52"><g transform="matrix(1,0,0,1,0,0)"><svg width="395.52" viewBox="0 -31.7 314.53 41" height="51.55402956604673" data-palette-color="#c422d5"><path d="M7.3 0L0 0 14.65-29.4 24.5-29.4 39.1 0 31.4 0 28.45-6.35 10.55-6.35 7.3 0ZM19.25-24.9L12.35-11.25 26.6-11.25 19.75-24.9 19.25-24.9ZM77.3 0L54.6 0 54.6-25.4 54.1-29.4 77.3-29.4Q81.34-29.4 83.52-28.4 85.7-27.4 86.55-25.43 87.4-23.45 87.4-20.5L87.4-20.5 87.4-8.95Q87.4-5.95 86.57-3.98 85.75-2 83.57-1 81.4 0 77.3 0L77.3 0ZM61.2-24.6L61.2-4.8 76.9-4.8Q80.75-4.8 80.8-8.35L80.8-8.35 80.8-21.1Q80.8-22.55 79.95-23.58 79.09-24.6 76.9-24.6L76.9-24.6 61.2-24.6ZM109.54 0L99.49 0Q96.99 0 95.64-0.65 94.29-1.3 93.72-2.3 93.14-3.3 93.02-4.4 92.89-5.5 92.89-6.4L92.89-6.4 92.89-16Q92.89-16.75 93.02-17.82 93.14-18.9 93.72-19.95 94.29-21 95.67-21.7 97.04-22.4 99.49-22.4L99.49-22.4 110.24-22.4Q113.54-22.4 115.42-21.78 117.29-21.15 118.07-19.75 118.84-18.35 118.84-16L118.84-16 118.84-8.6 110.09-8.6Q105.59-8.6 102.77-8.8 99.94-9 98.99-9.05L98.99-9.05 98.99-6.3Q98.94-4.3 101.39-4.3L101.39-4.3 103.94-4.3Q106.64-4.3 109.22-4.38 111.79-4.45 113.94-4.58 116.09-4.7 117.39-4.8L117.39-4.8 119.39-1.55Q119.39 0 109.54 0L109.54 0ZM98.99-16.1L98.99-12.9 112.74-12.9 112.74-16.1Q112.74-17.1 112.52-17.5 112.29-17.9 111.19-18 110.09-18.1 107.44-18.1L107.44-18.1 101.39-18.1Q98.99-18.1 98.99-16.1L98.99-16.1ZM140.19 0L132.19 0 121.89-22.4 128.89-22.4 134.64-8.6 135.94-5 136.44-5 137.74-8.6 143.59-22.4 150.39-22.4 149.59-19.35 140.19 0ZM170.04 0L159.99 0Q157.49 0 156.14-0.65 154.79-1.3 154.21-2.3 153.64-3.3 153.51-4.4 153.39-5.5 153.39-6.4L153.39-6.4 153.39-16Q153.39-16.75 153.51-17.82 153.64-18.9 154.21-19.95 154.79-21 156.16-21.7 157.54-22.4 159.99-22.4L159.99-22.4 170.74-22.4Q174.04-22.4 175.91-21.78 177.79-21.15 178.56-19.75 179.34-18.35 179.34-16L179.34-16 179.34-8.6 170.59-8.6Q166.09-8.6 163.26-8.8 160.44-9 159.49-9.05L159.49-9.05 159.49-6.3Q159.44-4.3 161.89-4.3L161.89-4.3 164.44-4.3Q167.14-4.3 169.71-4.38 172.29-4.45 174.44-4.58 176.59-4.7 177.89-4.8L177.89-4.8 179.89-1.55Q179.89 0 170.04 0L170.04 0ZM159.49-16.1L159.49-12.9 173.24-12.9 173.24-16.1Q173.24-17.1 173.01-17.5 172.79-17.9 171.69-18 170.59-18.1 167.94-18.1L167.94-18.1 161.89-18.1Q159.49-18.1 159.49-16.1L159.49-16.1ZM191.49 0L185.39 0 185.39-27.7 184.89-31.7 191.49-31.7 191.49 0ZM217.38 0L203.58 0Q200.23 0 198.61-1.35 196.98-2.7 196.98-5.75L196.98-5.75 196.98-16Q196.98-16.75 197.11-17.82 197.23-18.9 197.81-19.95 198.38-21 199.76-21.7 201.13-22.4 203.58-22.4L203.58-22.4 217.38-22.4Q219.88-22.4 221.23-21.7 222.58-21 223.16-19.95 223.73-18.9 223.86-17.82 223.98-16.75 223.98-16L223.98-16 223.98-6.4Q223.98-5.5 223.86-4.4 223.73-3.3 223.13-2.3 222.53-1.3 221.18-0.65 219.83 0 217.38 0L217.38 0ZM205.48-4.3L205.48-4.3 215.48-4.3Q217.93-4.3 217.93-6.3L217.93-6.3 217.93-16.1Q217.93-18.1 215.48-18.1L215.48-18.1 205.48-18.1Q203.08-18.1 203.08-16.1L203.08-16.1 203.08-6.3Q203.08-4.3 205.48-4.3ZM235.58 9.3L229.48 9.3 229.48-22.4 233.58-22.4 234.83-21.75Q237.08-22 240.21-22.2 243.33-22.4 247.33-22.4L247.33-22.4 249.88-22.4Q252.38-22.4 253.73-21.75 255.08-21.1 255.66-20.1 256.23-19.1 256.36-18 256.48-16.9 256.48-16L256.48-16 256.48-6.4Q256.48-5.65 256.36-4.58 256.23-3.5 255.66-2.45 255.08-1.4 253.73-0.7 252.38 0 249.88 0L249.88 0 247.33 0Q243.53 0 240.58-0.2 237.63-0.4 235.58-0.6L235.58-0.6 235.58 9.3ZM237.13-4.3L237.13-4.3 247.98-4.3Q248.93-4.3 249.66-4.8 250.38-5.3 250.38-6.3L250.38-6.3 250.38-16.1Q250.43-17.2 249.86-17.65 249.28-18.1 247.98-18.1L247.98-18.1 245.48-18.1Q242.28-18.1 239.81-17.98 237.33-17.85 235.58-17.7L235.58-17.7 235.58-5.85Q235.58-4.75 235.81-4.53 236.03-4.3 237.13-4.3ZM278.13 0L268.08 0Q265.58 0 264.23-0.65 262.88-1.3 262.3-2.3 261.73-3.3 261.6-4.4 261.48-5.5 261.48-6.4L261.48-6.4 261.48-16Q261.48-16.75 261.6-17.82 261.73-18.9 262.3-19.95 262.88-21 264.25-21.7 265.63-22.4 268.08-22.4L268.08-22.4 278.83-22.4Q282.13-22.4 284-21.78 285.88-21.15 286.65-19.75 287.43-18.35 287.43-16L287.43-16 287.43-8.6 278.68-8.6Q274.18-8.6 271.35-8.8 268.53-9 267.58-9.05L267.58-9.05 267.58-6.3Q267.53-4.3 269.98-4.3L269.98-4.3 272.53-4.3Q275.23-4.3 277.8-4.38 280.38-4.45 282.53-4.58 284.68-4.7 285.98-4.8L285.98-4.8 287.98-1.55Q287.98 0 278.13 0L278.13 0ZM267.58-16.1L267.58-12.9 281.33-12.9 281.33-16.1Q281.33-17.1 281.1-17.5 280.88-17.9 279.78-18 278.68-18.1 276.03-18.1L276.03-18.1 269.98-18.1Q267.58-18.1 267.58-16.1L267.58-16.1ZM299.08 0L292.98 0 292.98-22.4 297.08-22.4 298.98-21.4Q300.28-22.1 301.78-22.5 303.28-22.9 305.58-22.9L305.58-22.9Q309.23-22.9 311.5-22.1 313.78-21.3 314.53-20.9L314.53-20.9 312.78-16.55Q312.18-16.85 310.8-17.32 309.43-17.8 307.58-18.2 305.73-18.6 303.53-18.6L303.53-18.6 302.98-18.6Q300.58-18.6 299.85-17.65 299.13-16.7 299.08-14.5L299.08-14.5 299.08 0Z" opacity="1" transform="matrix(1,0,0,1,0,0)" fill="#ffffff" class="slogan-text-1" data-fill-palette-color="secondary" id="text-1"></path></svg></g></svg></g></svg></g></svg></g></svg></g><defs></defs></svg><rect width="376.4829629457003" height="247.2" fill="none" stroke="none" visibility="hidden"></rect></g></svg></g></svg>